<svg width="1124" height="227" viewBox="0 0 1124 227" fill="none" xmlns="http://www.w3.org/2000/svg">
<path d="M2.5 168.596C39.626 198.119 84.8268 209.297 111.558 216.633C149.844 227.141 207.273 225.859 250.78 220.136C287.962 215.244 310.534 209.353 341.855 191.39C378.981 170.097 392.944 156.896 421.907 131.344C446.851 109.338 457.39 94.3125 481.077 71.2975C498.003 54.8517 505.441 45.5016 525.164 29.7656C543.791 14.9039 559.063 10.0143 583.753 4.9702C605.797 0.466885 642.082 0.729928 668.447 17.7563C700.352 38.3608 708.221 49.3548 731.677 71.2975C749.65 88.1105 756.472 100.144 775.764 115.832C794.228 130.845 804.189 137.072 827.393 149.858C850.875 162.797 869.973 165.426 897.004 159.589C916.774 155.32 932.389 144.181 946.312 131.344C967.775 111.552 979.377 89.7596 1002 73.5232C1019.31 61.104 1027.71 55.3885 1050.15 53.784C1079.02 51.7191 1098.21 56.4303 1121.5 71.2975" stroke="url(#paint0_linear_131_12552)" stroke-width="5" stroke-linecap="round" stroke-dasharray="10 10"/>
<defs>
<linearGradient id="paint0_linear_131_12552" x1="2.5" y1="113.917" x2="1121.5" y2="113.917" gradientUnits="userSpaceOnUse">
<stop stop-color="#141F53"/>
<stop offset="1" stop-color="#2D45B9"/>
</linearGradient>
</defs>
</svg>
